<svg width="84" height="78" viewBox="0 0 84 78" fill="none" xmlns="http://www.w3.org/2000/svg">
<ellipse cx="42" cy="39" rx="42" ry="39" fill="#2848EE"/>
<mask id="path-2-inside-1_278_138" fill="white">
<path d="M56.0685 41.253C56.5764 40.7198 56.5558 39.8757 56.0227 39.3678C55.4895 38.8599 54.6454 38.8805 54.1375 39.4137L43.5517 50.5271V24.3333C43.5517 23.597 42.9549 23 42.2184 23C41.482 23 40.8851 23.597 40.8851 24.3333V50.5278L30.2988 39.4137C29.7909 38.8805 28.9469 38.8599 28.4137 39.3678C27.8805 39.8757 27.86 40.7198 28.3679 41.253L40.9309 54.4421C41.2172 54.7428 41.5823 54.9204 41.962 54.9753C42.0451 54.9915 42.1307 55 42.2184 55C42.3067 55 42.3931 54.9915 42.4767 54.9749C42.8555 54.9196 43.2198 54.742 43.5055 54.4421L56.0685 41.253Z"/>
</mask>
<path d="M56.0685 41.253C56.5764 40.7198 56.5558 39.8757 56.0227 39.3678C55.4895 38.8599 54.6454 38.8805 54.1375 39.4137L43.5517 50.5271V24.3333C43.5517 23.597 42.9549 23 42.2184 23C41.482 23 40.8851 23.597 40.8851 24.3333V50.5278L30.2988 39.4137C29.7909 38.8805 28.9469 38.8599 28.4137 39.3678C27.8805 39.8757 27.86 40.7198 28.3679 41.253L40.9309 54.4421C41.2172 54.7428 41.5823 54.9204 41.962 54.9753C42.0451 54.9915 42.1307 55 42.2184 55C42.3067 55 42.3931 54.9915 42.4767 54.9749C42.8555 54.9196 43.2198 54.742 43.5055 54.4421L56.0685 41.253Z" fill="white" stroke="white" stroke-width="7.11111" mask="url(#path-2-inside-1_278_138)"/>
</svg>
