<svg width="78" height="78" viewBox="0 0 78 78" fill="none" xmlns="http://www.w3.org/2000/svg">
<circle cx="39" cy="39" r="39" fill="#2848EE"/>
<path fill-rule="evenodd" clip-rule="evenodd" d="M19 17H21.5622V57.3125H59.9948V60H19V17ZM44.6218 26.4062C44.6218 26.0499 44.7567 25.7081 44.997 25.4561C45.2372 25.2041 45.5631 25.0625 45.9029 25.0625H56.1516C56.4913 25.0625 56.8172 25.2041 57.0574 25.4561C57.2977 25.7081 57.4326 26.0499 57.4326 26.4062V37.1562C57.4326 37.5126 57.2977 37.8544 57.0574 38.1064C56.8172 38.3584 56.4913 38.5 56.1516 38.5C55.8118 38.5 55.4859 38.3584 55.2457 38.1064C55.0054 37.8544 54.8705 37.5126 54.8705 37.1562V30.1688L45.6133 42.0394C45.5 42.1845 45.359 42.3031 45.1993 42.3876C45.0397 42.4721 44.8649 42.5205 44.6863 42.5299C44.5077 42.5393 44.3293 42.5093 44.1624 42.442C43.9955 42.3746 43.8439 42.2714 43.7173 42.1389L37.089 35.1863L27.7216 48.6964C27.5167 48.9697 27.2188 49.149 26.8904 49.1968C26.5621 49.2445 26.2289 49.1568 25.9608 48.9522C25.6928 48.7476 25.5108 48.442 25.4531 48.0996C25.3954 47.7572 25.4665 47.4047 25.6514 47.1161L35.9001 32.3349C36.0089 32.1777 36.1489 32.0471 36.3104 31.9521C36.4719 31.8572 36.6512 31.8 36.8357 31.7847C37.0203 31.7694 37.2059 31.7962 37.3797 31.8634C37.5534 31.9305 37.7112 32.0364 37.8422 32.1736L44.527 39.188L53.4485 27.75H45.9029C45.5631 27.75 45.2372 27.6084 44.997 27.3564C44.7567 27.1044 44.6218 26.7626 44.6218 26.4062Z" fill="white"/>
</svg>
