<svg width="446" height="247" viewBox="0 0 446 247" fill="none" xmlns="http://www.w3.org/2000/svg">
<g clip-path="url(#clip0_194_696)">
<path d="M423.7 0H22.3C9.98405 0 0 9.98405 0 22.3V224.593C0 236.909 9.98405 246.893 22.3 246.893H423.7C436.016 246.893 446 236.909 446 224.593V22.3C446 9.98405 436.016 0 423.7 0Z" fill="url(#paint0_linear_194_696)"/>
<g filter="url(#filter0_d_194_696)">
<path d="M79.643 183.18C167.614 183.18 238.929 111.865 238.929 23.8941C238.929 -64.077 167.614 -135.392 79.643 -135.392C-8.32806 -135.392 -79.6427 -64.077 -79.6427 23.8941C-79.6427 111.865 -8.32806 183.18 79.643 183.18Z" fill="url(#paint1_linear_194_696)"/>
</g>
<path d="M40.8042 47.39C6.71539 -11.6536 -68.7833 -31.8834 -127.827 2.20543C-186.87 36.2942 -207.1 111.793 -173.011 170.836C-138.923 229.88 -63.4239 250.11 -4.38034 216.021C54.6632 181.932 74.893 106.433 40.8042 47.39Z" fill="url(#paint2_linear_194_696)"/>
<path opacity="0.908" d="M172.003 180.181C137.914 121.137 62.4155 100.908 3.37196 134.996C-55.6716 169.085 -75.9014 244.584 -41.8126 303.627C-7.72378 362.671 67.7749 382.901 126.818 348.812C185.862 314.723 206.092 239.224 172.003 180.181Z" fill="url(#paint3_linear_194_696)"/>
<path d="M387.324 208.627C400.945 208.627 411.987 197.518 411.987 183.814C411.987 170.109 400.945 159 387.324 159C373.704 159 362.662 170.109 362.662 183.814C362.662 197.518 373.704 208.627 387.324 208.627Z" fill="#F99600"/>
<path d="M359.58 208.627C373.2 208.627 384.242 197.518 384.242 183.814C384.242 170.109 373.2 159 359.58 159C345.959 159 334.918 170.109 334.918 183.814C334.918 197.518 345.959 208.627 359.58 208.627Z" fill="#EC000A"/>
<path d="M362.662 183.814C362.655 179.774 363.635 175.794 365.515 172.218C367.395 168.642 370.12 165.579 373.452 163.295C376.784 165.579 379.509 168.642 381.389 172.218C383.269 175.794 384.249 179.774 384.242 183.814C384.249 187.854 383.269 191.834 381.389 195.41C379.509 198.985 376.784 202.048 373.452 204.332C370.12 202.048 367.396 198.985 365.515 195.41C363.635 191.834 362.656 187.854 362.662 183.814V183.814Z" fill="#FF5300"/>
<path d="M349.961 222.455H348.831V218.404C348.831 217.623 348.71 217.058 348.466 216.709C348.227 216.36 347.823 216.185 347.254 216.185C346.771 216.185 346.36 216.405 346.02 216.846C345.685 217.287 345.517 217.816 345.517 218.431V222.455H344.387V218.266C344.387 216.879 343.852 216.185 342.782 216.185C342.286 216.185 341.877 216.394 341.555 216.812C341.234 217.225 341.073 217.765 341.073 218.431V222.455H339.943V215.4H341.073V216.516H341.101C341.601 215.661 342.332 215.234 343.292 215.234C343.774 215.234 344.194 215.37 344.553 215.641C344.911 215.907 345.157 216.258 345.29 216.695C345.814 215.721 346.594 215.234 347.633 215.234C349.185 215.234 349.961 216.192 349.961 218.107V222.455ZM357.148 222.455H356.018V221.353H355.99C355.499 222.198 354.775 222.62 353.82 222.62C353.117 222.62 352.566 222.434 352.166 222.062C351.771 221.69 351.574 221.196 351.574 220.581C351.574 219.263 352.35 218.496 353.903 218.28L356.018 217.983C356.018 216.784 355.533 216.185 354.564 216.185C353.714 216.185 352.947 216.474 352.263 217.053V215.896C352.956 215.455 353.756 215.234 354.661 215.234C356.319 215.234 357.148 216.112 357.148 217.866V222.455ZM356.018 218.886L354.316 219.12C353.792 219.194 353.397 219.325 353.131 219.513C352.865 219.697 352.731 220.025 352.731 220.498C352.731 220.843 352.853 221.125 353.096 221.346C353.345 221.562 353.673 221.67 354.082 221.67C354.642 221.67 355.104 221.474 355.467 221.084C355.834 220.689 356.018 220.191 356.018 219.589V218.886ZM358.85 222.2V220.987C359.465 221.442 360.143 221.67 360.882 221.67C361.875 221.67 362.371 221.339 362.371 220.677C362.371 220.489 362.327 220.331 362.24 220.202C362.157 220.069 362.042 219.952 361.895 219.851C361.753 219.75 361.583 219.66 361.385 219.582C361.192 219.499 360.983 219.414 360.758 219.327C360.446 219.203 360.17 219.079 359.932 218.955C359.697 218.826 359.5 218.684 359.339 218.528C359.183 218.367 359.063 218.185 358.981 217.983C358.903 217.781 358.864 217.545 358.864 217.274C358.864 216.943 358.939 216.651 359.091 216.399C359.243 216.141 359.445 215.928 359.697 215.758C359.95 215.583 360.237 215.452 360.559 215.365C360.885 215.278 361.22 215.234 361.565 215.234C362.175 215.234 362.722 215.34 363.204 215.551V216.695C362.685 216.355 362.088 216.185 361.413 216.185C361.202 216.185 361.011 216.21 360.841 216.261C360.671 216.307 360.524 216.373 360.4 216.461C360.281 216.548 360.186 216.654 360.118 216.778C360.053 216.897 360.021 217.03 360.021 217.177C360.021 217.361 360.053 217.515 360.118 217.639C360.186 217.763 360.285 217.873 360.414 217.97C360.542 218.066 360.699 218.153 360.882 218.231C361.066 218.309 361.275 218.394 361.509 218.486C361.822 218.606 362.102 218.73 362.35 218.858C362.598 218.982 362.809 219.125 362.984 219.286C363.158 219.442 363.292 219.623 363.384 219.83C363.48 220.037 363.528 220.282 363.528 220.567C363.528 220.916 363.45 221.219 363.294 221.477C363.142 221.734 362.938 221.948 362.681 222.117C362.424 222.287 362.127 222.414 361.792 222.496C361.457 222.579 361.105 222.62 360.738 222.62C360.012 222.62 359.383 222.48 358.85 222.2ZM368.544 222.386C368.278 222.533 367.926 222.607 367.49 222.607C366.254 222.607 365.637 221.918 365.637 220.54V216.364H364.424V215.4H365.637V213.677L366.767 213.312V215.4H368.544V216.364H366.767V220.34C366.767 220.813 366.847 221.151 367.008 221.353C367.169 221.555 367.435 221.656 367.807 221.656C368.092 221.656 368.338 221.578 368.544 221.422V222.386ZM375.724 219.21H370.742C370.761 219.995 370.972 220.602 371.376 221.029C371.78 221.456 372.336 221.67 373.044 221.67C373.838 221.67 374.569 221.408 375.235 220.884V221.945C374.615 222.395 373.795 222.62 372.775 222.62C371.778 222.62 370.995 222.301 370.425 221.663C369.856 221.02 369.571 220.117 369.571 218.955C369.571 217.857 369.881 216.964 370.501 216.275C371.126 215.581 371.9 215.234 372.823 215.234C373.746 215.234 374.461 215.533 374.966 216.13C375.471 216.727 375.724 217.556 375.724 218.617V219.21ZM374.566 218.252C374.562 217.6 374.403 217.092 374.091 216.729C373.783 216.366 373.354 216.185 372.802 216.185C372.27 216.185 371.817 216.376 371.445 216.757C371.073 217.138 370.843 217.637 370.756 218.252H374.566ZM381.119 216.543C380.921 216.392 380.637 216.316 380.265 216.316C379.782 216.316 379.378 216.543 379.052 216.998C378.73 217.453 378.57 218.073 378.57 218.858V222.455H377.44V215.4H378.57V216.853H378.597C378.758 216.357 379.004 215.971 379.334 215.696C379.665 215.416 380.035 215.275 380.444 215.275C380.738 215.275 380.963 215.308 381.119 215.372V216.543ZM387.155 222.131C386.613 222.457 385.97 222.62 385.225 222.62C384.219 222.62 383.406 222.294 382.786 221.642C382.171 220.985 381.863 220.135 381.863 219.093C381.863 217.931 382.196 216.998 382.862 216.295C383.528 215.588 384.417 215.234 385.529 215.234C386.149 215.234 386.695 215.349 387.168 215.579V216.736C386.645 216.369 386.084 216.185 385.487 216.185C384.766 216.185 384.174 216.445 383.71 216.964C383.25 217.478 383.021 218.156 383.021 218.996C383.021 219.823 383.236 220.475 383.668 220.953C384.105 221.431 384.688 221.67 385.418 221.67C386.034 221.67 386.613 221.465 387.155 221.056V222.131ZM393.914 222.455H392.784V221.353H392.756C392.265 222.198 391.541 222.62 390.586 222.62C389.883 222.62 389.332 222.434 388.932 222.062C388.537 221.69 388.34 221.196 388.34 220.581C388.34 219.263 389.116 218.496 390.669 218.28L392.784 217.983C392.784 216.784 392.299 216.185 391.33 216.185C390.48 216.185 389.713 216.474 389.029 217.053V215.896C389.722 215.455 390.522 215.234 391.427 215.234C393.085 215.234 393.914 216.112 393.914 217.866V222.455ZM392.784 218.886L391.082 219.12C390.558 219.194 390.163 219.325 389.897 219.513C389.631 219.697 389.497 220.025 389.497 220.498C389.497 220.843 389.619 221.125 389.863 221.346C390.111 221.562 390.439 221.67 390.848 221.67C391.408 221.67 391.87 221.474 392.233 221.084C392.6 220.689 392.784 220.191 392.784 219.589V218.886ZM399.722 216.543C399.525 216.392 399.24 216.316 398.868 216.316C398.386 216.316 397.982 216.543 397.655 216.998C397.334 217.453 397.173 218.073 397.173 218.858V222.455H396.043V215.4H397.173V216.853H397.201C397.361 216.357 397.607 215.971 397.938 215.696C398.269 215.416 398.638 215.275 399.047 215.275C399.341 215.275 399.566 215.308 399.722 215.372V216.543ZM406.971 222.455H405.841V221.256H405.813C405.29 222.166 404.481 222.62 403.388 222.62C402.501 222.62 401.792 222.306 401.259 221.676C400.731 221.043 400.467 220.181 400.467 219.093C400.467 217.926 400.761 216.991 401.349 216.288C401.936 215.586 402.72 215.234 403.698 215.234C404.667 215.234 405.372 215.615 405.813 216.378H405.841V212.01H406.971V222.455ZM405.841 219.265V218.224C405.841 217.655 405.653 217.173 405.276 216.778C404.899 216.383 404.422 216.185 403.843 216.185C403.154 216.185 402.612 216.438 402.217 216.943C401.822 217.448 401.624 218.146 401.624 219.038C401.624 219.851 401.812 220.494 402.189 220.967C402.57 221.435 403.08 221.67 403.719 221.67C404.348 221.67 404.858 221.442 405.248 220.987C405.643 220.533 405.841 219.959 405.841 219.265Z" fill="white"/>
<path d="M50.1885 189.41L47.312 189.998L49.3066 192.549L48.1519 193.347L46.5142 190.565L44.8555 193.347L43.7007 192.549L45.6953 189.998L42.7979 189.41L43.2703 188.098L46.0208 189.137L45.7793 185.946H47.228L46.9866 189.137L49.7476 188.098L50.1885 189.41ZM64.5288 189.41L61.6523 189.998L63.647 192.549L62.4922 193.347L60.8545 190.565L59.1958 193.347L58.041 192.549L60.0356 189.998L57.1382 189.41L57.6106 188.098L60.3611 189.137L60.1196 185.946H61.5684L61.3269 189.137L64.0879 188.098L64.5288 189.41ZM78.8691 189.41L75.9927 189.998L77.9873 192.549L76.8325 193.347L75.1948 190.565L73.5361 193.347L72.3813 192.549L74.376 189.998L71.4785 189.41L71.9509 188.098L74.7014 189.137L74.46 185.946H75.9087L75.6672 189.137L78.4282 188.098L78.8691 189.41ZM93.2095 189.41L90.333 189.998L92.3276 192.549L91.1729 193.347L89.5352 190.565L87.8765 193.347L86.7217 192.549L88.7163 189.998L85.8188 189.41L86.2913 188.098L89.0417 189.137L88.8003 185.946H90.249L90.0076 189.137L92.7686 188.098L93.2095 189.41ZM118.825 189.41L115.948 189.998L117.943 192.549L116.788 193.347L115.15 190.565L113.492 193.347L112.337 192.549L114.332 189.998L111.434 189.41L111.906 188.098L114.657 189.137L114.416 185.946H115.864L115.623 189.137L118.384 188.098L118.825 189.41ZM133.165 189.41L130.289 189.998L132.283 192.549L131.128 193.347L129.491 190.565L127.832 193.347L126.677 192.549L128.672 189.998L125.774 189.41L126.247 188.098L128.997 189.137L128.756 185.946H130.205L129.963 189.137L132.724 188.098L133.165 189.41ZM147.505 189.41L144.629 189.998L146.624 192.549L145.469 193.347L143.831 190.565L142.172 193.347L141.018 192.549L143.012 189.998L140.115 189.41L140.587 188.098L143.338 189.137L143.096 185.946H144.545L144.303 189.137L147.064 188.098L147.505 189.41ZM161.846 189.41L158.969 189.998L160.964 192.549L159.809 193.347L158.171 190.565L156.513 193.347L155.358 192.549L157.353 189.998L154.455 189.41L154.927 188.098L157.678 189.137L157.437 185.946H158.885L158.644 189.137L161.405 188.098L161.846 189.41ZM187.461 189.41L184.584 189.998L186.579 192.549L185.424 193.347L183.787 190.565L182.128 193.347L180.973 192.549L182.968 189.998L180.07 189.41L180.543 188.098L183.293 189.137L183.052 185.946H184.5L184.259 189.137L187.02 188.098L187.461 189.41ZM201.801 189.41L198.925 189.998L200.919 192.549L199.765 193.347L198.127 190.565L196.468 193.347L195.313 192.549L197.308 189.998L194.411 189.41L194.883 188.098L197.634 189.137L197.392 185.946H198.841L198.599 189.137L201.36 188.098L201.801 189.41ZM216.142 189.41L213.265 189.998L215.26 192.549L214.105 193.347L212.467 190.565L210.809 193.347L209.654 192.549L211.648 189.998L208.751 189.41L209.223 188.098L211.974 189.137L211.732 185.946H213.181L212.94 189.137L215.701 188.098L216.142 189.41ZM230.482 189.41L227.605 189.998L229.6 192.549L228.445 193.347L226.808 190.565L225.149 193.347L223.994 192.549L225.989 189.998L223.091 189.41L223.564 188.098L226.314 189.137L226.073 185.946H227.521L227.28 189.137L230.041 188.098L230.482 189.41ZM256.832 185.946V195.887H258.764V197.462H256.832V201H255.131V197.462H248.056V195.971C248.714 195.23 249.378 194.439 250.05 193.599C250.722 192.752 251.363 191.895 251.971 191.027C252.587 190.159 253.154 189.295 253.672 188.434C254.197 187.566 254.638 186.737 254.995 185.946H256.832ZM249.998 195.887H255.131V188.518C254.606 189.435 254.11 190.253 253.641 190.974C253.172 191.695 252.724 192.35 252.297 192.938C251.877 193.525 251.475 194.057 251.09 194.533C250.705 195.009 250.341 195.461 249.998 195.887ZM272.474 201H270.752V187.993C270.619 188.126 270.424 188.28 270.165 188.455C269.913 188.623 269.626 188.791 269.304 188.959C268.989 189.127 268.653 189.284 268.296 189.431C267.946 189.578 267.603 189.694 267.267 189.778V188.035C267.645 187.93 268.044 187.79 268.464 187.615C268.891 187.433 269.307 187.234 269.713 187.017C270.126 186.793 270.514 186.562 270.878 186.324C271.242 186.079 271.557 185.841 271.823 185.61H272.474V201ZM292.441 186.943C292.21 187.342 291.931 187.839 291.602 188.434C291.28 189.029 290.937 189.697 290.573 190.439C290.209 191.181 289.838 191.979 289.46 192.833C289.082 193.686 288.729 194.568 288.4 195.478C288.071 196.388 287.78 197.312 287.528 198.25C287.283 199.18 287.105 200.097 286.993 201H285.145C285.271 200.104 285.464 199.191 285.723 198.26C285.989 197.322 286.286 196.405 286.615 195.51C286.951 194.607 287.304 193.739 287.675 192.906C288.046 192.073 288.407 191.307 288.757 190.607C289.107 189.907 289.425 189.291 289.712 188.759C290.006 188.22 290.24 187.8 290.415 187.5H282.867V185.946H292.441V186.943ZM307.727 185.946V195.887H309.658V197.462H307.727V201H306.026V197.462H298.95V195.971C299.608 195.23 300.273 194.439 300.945 193.599C301.617 192.752 302.257 191.895 302.866 191.027C303.482 190.159 304.049 189.295 304.567 188.434C305.092 187.566 305.532 186.737 305.889 185.946H307.727ZM300.892 195.887H306.026V188.518C305.501 189.435 305.004 190.253 304.535 190.974C304.066 191.695 303.618 192.35 303.191 192.938C302.771 193.525 302.369 194.057 301.984 194.533C301.599 195.009 301.235 195.461 300.892 195.887Z" fill="white"/>
</g>
<defs>
<filter id="filter0_d_194_696" x="-289.9" y="-383.877" width="739.086" height="739.086" filterUnits="userSpaceOnUse" color-interpolation-filters="sRGB">
<feFlood flood-opacity="0" result="BackgroundImageFix"/>
<feColorMatrix in="SourceAlpha" type="matrix" values="0 0 0 0 0 0 0 0 0 0 0 0 0 0 0 0 0 0 127 0" result="hardAlpha"/>
<feOffset dy="-38.2286"/>
<feGaussianBlur stdDeviation="105.129"/>
<feColorMatrix type="matrix" values="0 0 0 0 0 0 0 0 0 0 0 0 0 0 0 0 0 0 0.384 0"/>
<feBlend mode="normal" in2="BackgroundImageFix" result="effect1_dropShadow_194_696"/>
<feBlend mode="normal" in="SourceGraphic" in2="effect1_dropShadow_194_696" result="shape"/>
</filter>
<linearGradient id="paint0_linear_194_696" x1="159.668" y1="67.4018" x2="291.53" y2="314.138" gradientUnits="userSpaceOnUse">
<stop stop-color="#6A11CB"/>
<stop offset="1" stop-color="#2575FC"/>
</linearGradient>
<linearGradient id="paint1_linear_194_696" x1="79.643" y1="-135.392" x2="206.753" y2="82.1927" gradientUnits="userSpaceOnUse">
<stop stop-color="#F92100"/>
<stop offset="1" stop-color="#F71C9B" stop-opacity="0.616"/>
</linearGradient>
<linearGradient id="paint2_linear_194_696" x1="-173.011" y1="170.836" x2="-76.2304" y2="1.21011" gradientUnits="userSpaceOnUse">
<stop stop-color="#F92100"/>
<stop offset="1" stop-color="#F71C9B" stop-opacity="0.616"/>
</linearGradient>
<linearGradient id="paint3_linear_194_696" x1="-41.8126" y1="303.627" x2="161.526" y2="186.23" gradientUnits="userSpaceOnUse">
<stop stop-color="#FFC800" stop-opacity="0.969"/>
<stop offset="1" stop-color="#F7881C" stop-opacity="0.949"/>
</linearGradient>
<clipPath id="clip0_194_696">
<rect width="446" height="246.893" rx="31.8571" fill="white"/>
</clipPath>
</defs>
</svg>
