<svg width="84" height="78" viewBox="0 0 84 78" fill="none" xmlns="http://www.w3.org/2000/svg">
<ellipse cx="42" cy="39" rx="42" ry="39" fill="#2848EE"/>
<path d="M31.9117 18C29.1566 18 26.9231 20.0739 26.9231 22.6323V54.5436C26.9231 57.1018 29.1566 59.1759 31.9117 59.1759H48.5415C51.2808 59.1759 53.5046 57.1255 53.5299 54.5872L53.5306 54.5438V51.4556C53.5306 50.6028 52.786 49.9115 51.8677 49.9115C50.8613 49.9115 50.2283 49.6601 49.7904 49.3334C49.3293 48.9889 48.949 48.4578 48.6575 47.7086C48.0531 46.1542 47.9877 44.1047 47.9877 42.1908C47.9874 41.7999 47.8276 41.4233 47.5402 41.1375C47.3713 40.9691 47.2575 40.8551 47.1757 40.7731C46.9753 40.572 46.966 40.5625 46.7977 40.4155C46.6339 40.2724 46.1334 39.8288 44.1748 38.0108C43.1361 37.0467 42.56 36.2308 42.3716 35.6076C42.2853 35.3221 42.2898 35.109 42.3372 34.9375C42.3842 34.7674 42.4993 34.544 42.7909 34.2732C43.0822 34.0025 43.3223 33.896 43.5043 33.8528C43.6879 33.8091 43.9165 33.8051 44.2234 33.8854C44.8941 34.0611 45.772 34.597 46.8112 35.5625C48.0076 36.6741 49.1446 37.7181 50.1629 38.6534C51.8469 40.1996 53.2084 41.4499 53.9778 42.2153C54.6043 42.8387 55.6566 42.8723 56.328 42.2905C56.9993 41.7086 57.0357 40.7315 56.4091 40.1081C55.7783 39.4804 54.7642 38.5383 53.5295 37.4021V30.4769L59.8291 36.3268C60.7645 37.1954 61.2902 38.3736 61.2902 39.6021V57.6318C61.2902 58.4845 62.0347 59.1759 62.9531 59.1759C63.8714 59.1759 64.6159 58.4845 64.6159 57.6318V39.6021C64.6159 37.5546 63.7399 35.5909 62.1808 34.143L53.5292 26.1095V22.6322C53.529 20.0739 51.2957 18 48.5406 18H31.9117ZM45.5295 48.7575C45.7443 49.3095 46.021 49.8573 46.3804 50.3679C44.7076 51.1157 43.5533 52.7047 43.5533 54.544V56.0877H36.9018V54.544C36.9018 51.9855 34.6683 49.9117 31.9132 49.9117H30.2488V27.2639H31.9132C34.6683 27.2639 36.9018 25.1899 36.9018 22.6316V21.0882H43.5533V22.6316C43.5533 25.1899 45.7867 27.2639 48.542 27.2639H50.2035L50.2037 34.3429C49.8612 34.0265 49.5137 33.7049 49.1636 33.3796C47.9863 32.2855 46.6177 31.3038 45.1262 30.9132C44.3517 30.7104 43.5203 30.6611 42.6791 30.8611C42.1783 30.9802 41.7104 31.1791 41.277 31.4474C40.9335 31.4042 40.5832 31.382 40.2271 31.382C35.9413 31.382 32.467 34.6081 32.467 38.5877C32.467 42.5674 35.9413 45.7935 40.2271 45.7935C41.8991 45.7935 43.4474 45.3025 44.7142 44.4674C44.7961 45.8761 45.0038 47.4055 45.5295 48.7575ZM35.7927 38.5877C35.7927 36.7025 37.1573 35.1129 39.0194 34.6248C38.9266 35.2494 38.9945 35.8629 39.1697 36.4423C39.5888 37.8286 40.6446 39.1008 41.8237 40.195C42.4483 40.7748 42.9279 41.2176 43.2981 41.5581C42.5013 42.2686 41.4191 42.7053 40.2271 42.7053C37.7781 42.7053 35.7927 40.8619 35.7927 38.5877ZM30.2488 22.6323C30.2488 21.7795 30.9933 21.0882 31.9117 21.0882H33.576V22.6316C33.576 23.4844 32.8315 24.1757 31.9132 24.1757H30.2488V22.6323ZM46.8791 21.0882H48.5406C49.459 21.0882 50.2033 21.7795 50.2035 22.6322V24.1757H48.542C47.6236 24.1757 46.8791 23.4844 46.8791 22.6316V21.0882ZM50.2042 52.9999L50.2044 54.5436C50.2044 55.3963 49.4599 56.0877 48.5415 56.0877H46.8791V54.544C46.8791 53.691 47.6236 52.9999 48.542 52.9999H50.2042ZM33.576 56.0877H31.9117C30.9933 56.0877 30.2488 55.3963 30.2488 54.5436V52.9999H31.9132C32.8315 52.9999 33.576 53.691 33.576 54.544V56.0877Z" fill="white"/>
</svg>
