<svg width="78" height="78" viewBox="0 0 78 78" fill="none" xmlns="http://www.w3.org/2000/svg">
<circle cx="39" cy="39" r="39" fill="#2848EE"/>
<path d="M35.4998 29.6665C31.6339 29.6665 28.4998 32.8005 28.4998 36.6665C28.4998 40.5326 31.6339 43.6665 35.4998 43.6665C39.3659 43.6665 42.4998 40.5326 42.4998 36.6665C42.4998 32.8005 39.3659 29.6665 35.4998 29.6665ZM31.9998 36.6665C31.9998 34.7336 33.5668 33.1665 35.4998 33.1665C37.4328 33.1665 38.9998 34.7336 38.9998 36.6665C38.9998 38.5994 37.4328 40.1665 35.4998 40.1665C33.5668 40.1665 31.9998 38.5994 31.9998 36.6665ZM15.6665 27.9165C15.6665 25.017 18.017 22.6665 20.9165 22.6665H50.0832C52.9826 22.6665 55.3332 25.017 55.3332 27.9165V45.4165C55.3332 48.3159 52.9826 50.6665 50.0832 50.6665H20.9165C18.017 50.6665 15.6665 48.3159 15.6665 45.4165V27.9165ZM20.9165 26.1665C19.95 26.1665 19.1665 26.95 19.1665 27.9165V29.6665H20.9165C21.883 29.6665 22.6665 28.883 22.6665 27.9165V26.1665H20.9165ZM19.1665 40.1665H20.9165C23.816 40.1665 26.1665 42.5171 26.1665 45.4165V47.1665H44.8332V45.4165C44.8332 42.5171 47.1838 40.1665 50.0832 40.1665H51.8332V33.1665H50.0832C47.1838 33.1665 44.8332 30.816 44.8332 27.9165V26.1665H26.1665V27.9165C26.1665 30.816 23.816 33.1665 20.9165 33.1665H19.1665V40.1665ZM51.8332 29.6665V27.9165C51.8332 26.95 51.0496 26.1665 50.0832 26.1665H48.3332V27.9165C48.3332 28.883 49.1167 29.6665 50.0832 29.6665H51.8332ZM51.8332 43.6665H50.0832C49.1167 43.6665 48.3332 44.45 48.3332 45.4165V47.1665H50.0832C51.0496 47.1665 51.8332 46.383 51.8332 45.4165V43.6665ZM19.1665 45.4165C19.1665 46.383 19.95 47.1665 20.9165 47.1665H22.6665V45.4165C22.6665 44.45 21.883 43.6665 20.9165 43.6665H19.1665V45.4165ZM21.2697 54.1665C22.48 56.2588 24.7422 57.6665 27.3332 57.6665H51.2498C57.3711 57.6665 62.3332 52.7044 62.3332 46.5832V34.3332C62.3332 31.7422 60.9255 29.48 58.8332 28.2697V46.5832C58.8332 50.7713 55.4379 54.1665 51.2498 54.1665H21.2697Z" fill="#FEF3F3"/>
</svg>
