<svg width="443" height="245" viewBox="0 0 443 245" fill="none" xmlns="http://www.w3.org/2000/svg">
<g clip-path="url(#clip0_194_714)">
<path d="M420.452 0H22.129C9.90751 0 0 9.90751 0 22.129V222.871C0 235.092 9.90751 245 22.129 245H420.452C432.673 245 442.581 235.092 442.581 222.871V22.129C442.581 9.90751 432.673 0 420.452 0Z" fill="url(#paint0_linear_194_714)"/>
<path opacity="0.908" d="M534.813 106.089C500.985 47.4978 426.065 27.4231 367.475 61.2505C308.884 95.078 288.809 169.998 322.636 228.589C356.464 287.179 431.384 307.254 489.975 273.427C548.565 239.599 568.64 164.679 534.813 106.089Z" fill="url(#paint1_linear_194_714)"/>
<path opacity="0.908" d="M447.297 1.76541C413.47 -56.8254 338.55 -76.9002 279.959 -43.0727C221.368 -9.24527 201.294 65.6746 235.121 124.265C268.949 182.856 343.868 202.931 402.459 169.104C461.05 135.276 481.125 60.3562 447.297 1.76541Z" fill="url(#paint2_linear_194_714)"/>
<g filter="url(#filter0_d_194_714)">
<path opacity="0.908" d="M501.039 156.663C467.211 98.072 392.292 77.9973 333.701 111.825C275.11 145.652 255.035 220.572 288.863 279.163C322.69 337.754 397.61 357.828 456.201 324.001C514.792 290.174 534.866 215.254 501.039 156.663Z" fill="url(#paint3_linear_194_714)"/>
</g>
<path d="M360.101 208.53L361.008 203.045L361.843 203.436C363.75 204.344 365.846 204.784 367.957 204.721C369.816 204.721 371.825 203.973 371.842 202.328C371.851 201.254 371.001 200.486 368.474 199.288C366.014 198.117 362.748 196.154 362.783 192.632C362.827 187.865 367.34 184.545 373.762 184.545C375.748 184.531 377.719 184.88 379.579 185.574L378.7 190.885L378.117 190.606C376.651 189.973 375.07 189.65 373.473 189.657H373.258C370.704 189.657 369.54 190.749 369.539 191.766C369.523 192.912 370.912 193.662 373.184 194.804C376.927 196.55 378.659 198.667 378.637 201.461C378.585 206.551 374.148 209.836 367.332 209.836C364.862 209.849 362.41 209.407 360.101 208.53ZM378.172 209.478L387.817 187.029C388.075 186.359 388.55 185.795 389.165 185.427C389.781 185.059 390.503 184.907 391.214 184.997H396.23L401.484 209.48H395.46C395.46 209.472 394.866 206.671 394.67 205.808H390.102H386.355C386.117 206.44 385.107 209.177 384.991 209.488L378.172 209.478ZM391.075 193.212C390.889 193.71 390.813 193.912 390.808 193.939C390.596 194.499 388.733 199.448 388.224 200.78H393.612C393.372 199.633 392.24 194.325 392.112 193.723V193.708L391.674 191.595C391.499 192.083 391.254 192.735 391.075 193.212ZM356.031 209.472H349.542L353.601 184.972H360.095L356.034 209.472H356.031ZM328.069 188.023C332.238 190.213 335.443 193.875 337.061 198.297L337.741 201.692L344.095 184.994H350.973L340.752 209.448H333.883L328.069 188.023Z" fill="white"/>
<path d="M332.43 184.546H320.966L320.871 185.082C329.792 187.216 335.696 192.388 338.146 198.597L335.653 186.726C335.467 186.036 335.039 185.436 334.448 185.036C333.856 184.635 333.14 184.462 332.43 184.546Z" fill="#F79510"/>
<path d="M47.1872 193.412L44.3112 194L46.3055 196.55L45.1509 197.348L43.5135 194.567L41.855 197.348L40.7004 196.55L42.6948 194L39.7977 193.412L40.2701 192.1L43.0201 193.139L42.7787 189.948H44.2272L43.9858 193.139L46.7464 192.1L47.1872 193.412ZM60.4506 193.412L57.5746 194L59.5689 196.55L58.4143 197.348L56.7768 194.567L55.1184 197.348L53.9638 196.55L55.9581 194L53.0611 193.412L53.5334 192.1L56.2835 193.139L56.0421 189.948H57.4906L57.2492 193.139L60.0097 192.1L60.4506 193.412ZM73.7139 193.412L70.8379 194L72.8322 196.55L71.6776 197.348L70.0402 194.567L68.3817 197.348L67.2271 196.55L69.2214 194L66.3244 193.412L66.7968 192.1L69.5468 193.139L69.3054 189.948H70.7539L70.5125 193.139L73.2731 192.1L73.7139 193.412ZM86.9773 193.412L84.1012 194L86.0956 196.55L84.941 197.348L83.3035 194.567L81.6451 197.348L80.4905 196.55L82.4848 194L79.5878 193.412L80.0601 192.1L82.8102 193.139L82.5688 189.948H84.0173L83.7758 193.139L86.5364 192.1L86.9773 193.412ZM110.439 193.412L107.563 194L109.557 196.55L108.403 197.348L106.765 194.567L105.107 197.348L103.952 196.55L105.946 194L103.049 193.412L103.522 192.1L106.272 193.139L106.03 189.948H107.479L107.238 193.139L109.998 192.1L110.439 193.412ZM123.702 193.412L120.826 194L122.821 196.55L121.666 197.348L120.029 194.567L118.37 197.348L117.216 196.55L119.21 194L116.313 193.412L116.785 192.1L119.535 193.139L119.294 189.948H120.742L120.501 193.139L123.261 192.1L123.702 193.412ZM136.966 193.412L134.09 194L136.084 196.55L134.929 197.348L133.292 194.567L131.633 197.348L130.479 196.55L132.473 194L129.576 193.412L130.048 192.1L132.799 193.139L132.557 189.948H134.006L133.764 193.139L136.525 192.1L136.966 193.412ZM150.229 193.412L147.353 194L149.347 196.55L148.193 197.348L146.555 194.567L144.897 197.348L143.742 196.55L145.737 194L142.839 193.412L143.312 192.1L146.062 193.139L145.82 189.948H147.269L147.028 193.139L149.788 192.1L150.229 193.412ZM173.691 193.412L170.815 194L172.809 196.55L171.654 197.348L170.017 194.567L168.359 197.348L167.204 196.55L169.198 194L166.301 193.412L166.774 192.1L169.524 193.139L169.282 189.948H170.731L170.489 193.139L173.25 192.1L173.691 193.412ZM186.954 193.412L184.078 194L186.072 196.55L184.918 197.348L183.28 194.567L181.622 197.348L180.467 196.55L182.462 194L179.565 193.412L180.037 192.1L182.787 193.139L182.546 189.948H183.994L183.753 193.139L186.513 192.1L186.954 193.412ZM200.217 193.412L197.341 194L199.336 196.55L198.181 197.348L196.544 194.567L194.885 197.348L193.731 196.55L195.725 194L192.828 193.412L193.3 192.1L196.05 193.139L195.809 189.948H197.257L197.016 193.139L199.777 192.1L200.217 193.412ZM213.481 193.412L210.605 194L212.599 196.55L211.444 197.348L209.807 194.567L208.149 197.348L206.994 196.55L208.988 194L206.091 193.412L206.564 192.1L209.314 193.139L209.072 189.948H210.521L210.279 193.139L213.04 192.1L213.481 193.412ZM229.7 200.801C229.7 200.403 229.763 200.004 229.889 199.605C230.015 199.199 230.193 198.821 230.424 198.471C230.662 198.121 230.952 197.803 231.295 197.516C231.645 197.229 232.041 197.002 232.481 196.834C231.831 196.47 231.313 196.005 230.928 195.438C230.543 194.864 230.351 194.231 230.351 193.538C230.351 192.985 230.456 192.474 230.666 192.005C230.882 191.537 231.18 191.131 231.558 190.788C231.936 190.445 232.383 190.179 232.901 189.99C233.419 189.794 233.979 189.696 234.581 189.696C235.19 189.696 235.753 189.794 236.271 189.99C236.789 190.186 237.236 190.455 237.614 190.798C237.992 191.141 238.286 191.547 238.496 192.016C238.706 192.485 238.811 192.992 238.811 193.538C238.811 194.231 238.618 194.864 238.234 195.438C237.849 196.005 237.338 196.47 236.701 196.834C237.135 197.002 237.523 197.229 237.866 197.516C238.209 197.803 238.496 198.121 238.727 198.471C238.965 198.821 239.147 199.199 239.273 199.605C239.399 200.004 239.462 200.403 239.462 200.801C239.462 201.459 239.343 202.061 239.105 202.607C238.867 203.153 238.531 203.621 238.097 204.013C237.67 204.398 237.156 204.699 236.554 204.916C235.959 205.133 235.302 205.241 234.581 205.241C233.867 205.241 233.213 205.133 232.618 204.916C232.023 204.699 231.509 204.398 231.075 204.013C230.641 203.621 230.302 203.153 230.057 202.607C229.819 202.061 229.7 201.459 229.7 200.801ZM231.568 200.654C231.568 201.123 231.638 201.547 231.778 201.925C231.925 202.302 232.128 202.624 232.387 202.89C232.653 203.156 232.971 203.363 233.342 203.51C233.72 203.649 234.136 203.719 234.591 203.719C235.032 203.719 235.438 203.646 235.809 203.499C236.18 203.352 236.498 203.146 236.764 202.88C237.037 202.614 237.247 202.292 237.394 201.914C237.548 201.536 237.625 201.116 237.625 200.654C237.625 200.235 237.551 199.843 237.404 199.479C237.264 199.108 237.061 198.783 236.796 198.503C236.53 198.223 236.211 198.002 235.84 197.841C235.469 197.68 235.053 197.6 234.591 197.6C234.157 197.6 233.755 197.677 233.384 197.831C233.02 197.978 232.702 198.188 232.429 198.461C232.163 198.727 231.953 199.049 231.799 199.426C231.645 199.797 231.568 200.207 231.568 200.654ZM232.104 193.674C232.104 194.031 232.167 194.364 232.293 194.671C232.425 194.972 232.604 195.238 232.828 195.469C233.059 195.693 233.325 195.872 233.626 196.005C233.926 196.13 234.248 196.193 234.591 196.193C234.934 196.193 235.256 196.127 235.557 195.994C235.865 195.861 236.131 195.683 236.355 195.459C236.579 195.228 236.757 194.962 236.89 194.661C237.023 194.353 237.089 194.024 237.089 193.674C237.089 193.31 237.023 192.975 236.89 192.667C236.764 192.359 236.589 192.093 236.365 191.869C236.141 191.645 235.875 191.47 235.567 191.344C235.267 191.211 234.941 191.145 234.591 191.145C234.22 191.145 233.881 191.211 233.573 191.344C233.272 191.477 233.01 191.659 232.786 191.89C232.569 192.114 232.401 192.38 232.282 192.688C232.163 192.996 232.104 193.324 232.104 193.674ZM252.746 193.895C252.746 193.433 252.672 193.031 252.526 192.688C252.386 192.345 252.19 192.061 251.938 191.837C251.693 191.607 251.402 191.435 251.067 191.323C250.731 191.211 250.367 191.155 249.975 191.155C249.639 191.155 249.31 191.201 248.988 191.292C248.666 191.383 248.351 191.509 248.044 191.669C247.743 191.83 247.449 192.023 247.162 192.247C246.882 192.471 246.62 192.719 246.375 192.992V191.145C246.857 190.676 247.396 190.319 247.991 190.074C248.593 189.822 249.324 189.696 250.185 189.696C250.801 189.696 251.371 189.787 251.896 189.969C252.421 190.144 252.875 190.403 253.26 190.746C253.645 191.089 253.946 191.512 254.163 192.016C254.387 192.52 254.499 193.097 254.499 193.748C254.499 194.343 254.429 194.881 254.289 195.364C254.156 195.847 253.95 196.302 253.67 196.729C253.397 197.156 253.05 197.565 252.63 197.957C252.211 198.349 251.717 198.748 251.15 199.153C250.444 199.657 249.859 200.088 249.398 200.445C248.943 200.801 248.579 201.137 248.306 201.452C248.04 201.76 247.851 202.071 247.739 202.386C247.634 202.694 247.582 203.051 247.582 203.457H255.076V205H245.787V204.255C245.787 203.611 245.857 203.044 245.997 202.554C246.137 202.064 246.368 201.599 246.689 201.158C247.011 200.717 247.431 200.277 247.949 199.836C248.474 199.395 249.114 198.898 249.87 198.345C250.416 197.953 250.871 197.579 251.234 197.222C251.605 196.865 251.903 196.508 252.127 196.151C252.351 195.795 252.508 195.434 252.599 195.07C252.697 194.699 252.746 194.308 252.746 193.895ZM268.13 205H266.408V191.995C266.275 192.128 266.079 192.282 265.82 192.457C265.568 192.625 265.282 192.793 264.96 192.961C264.645 193.128 264.309 193.286 263.952 193.433C263.602 193.58 263.259 193.695 262.923 193.779V192.037C263.301 191.932 263.7 191.792 264.12 191.617C264.547 191.435 264.963 191.236 265.369 191.019C265.782 190.795 266.17 190.564 266.534 190.326C266.898 190.081 267.213 189.843 267.479 189.612H268.13V205ZM287.124 197.411C287.124 198.671 287.009 199.787 286.778 200.759C286.554 201.732 286.225 202.554 285.791 203.226C285.364 203.891 284.836 204.398 284.206 204.748C283.583 205.091 282.873 205.262 282.075 205.262C281.319 205.262 280.644 205.098 280.049 204.769C279.462 204.433 278.965 203.947 278.559 203.31C278.153 202.673 277.845 201.893 277.635 200.969C277.425 200.039 277.32 198.975 277.32 197.778C277.32 196.463 277.429 195.301 277.646 194.294C277.87 193.286 278.195 192.443 278.622 191.764C279.049 191.078 279.577 190.564 280.207 190.221C280.844 189.871 281.571 189.696 282.39 189.696C285.546 189.696 287.124 192.268 287.124 197.411ZM285.361 197.579C285.361 193.296 284.342 191.155 282.306 191.155C280.158 191.155 279.084 193.335 279.084 197.694C279.084 201.76 280.137 203.793 282.243 203.793C284.321 203.793 285.361 201.722 285.361 197.579Z" fill="white"/>
</g>
<defs>
<filter id="filter0_d_194_714" x="187.075" y="13.199" width="415.751" height="415.751" filterUnits="userSpaceOnUse" color-interpolation-filters="sRGB">
<feFlood flood-opacity="0" result="BackgroundImageFix"/>
<feColorMatrix in="SourceAlpha" type="matrix" values="0 0 0 0 0 0 0 0 0 0 0 0 0 0 0 0 0 0 127 0" result="hardAlpha"/>
<feOffset dy="3.16129"/>
<feGaussianBlur stdDeviation="42.6774"/>
<feColorMatrix type="matrix" values="0 0 0 0 0 0 0 0 0 0 0 0 0 0 0 0 0 0 0.353 0"/>
<feBlend mode="normal" in2="BackgroundImageFix" result="effect1_dropShadow_194_714"/>
<feBlend mode="normal" in="SourceGraphic" in2="effect1_dropShadow_194_714" result="shape"/>
</filter>
<linearGradient id="paint0_linear_194_714" x1="352.737" y1="192.815" x2="167.27" y2="-180.197" gradientUnits="userSpaceOnUse">
<stop stop-color="#2AF598"/>
<stop offset="1" stop-color="#009EFD"/>
</linearGradient>
<linearGradient id="paint1_linear_194_714" x1="322.636" y1="228.589" x2="524.416" y2="112.091" gradientUnits="userSpaceOnUse">
<stop stop-color="#2200FF" stop-opacity="0.969"/>
<stop offset="1" stop-color="#1CE9F7" stop-opacity="0.949"/>
</linearGradient>
<linearGradient id="paint2_linear_194_714" x1="235.121" y1="124.265" x2="436.901" y2="7.76792" gradientUnits="userSpaceOnUse">
<stop stop-color="#CFFF2A"/>
<stop offset="1" stop-color="#1DFF92" stop-opacity="0.949"/>
</linearGradient>
<linearGradient id="paint3_linear_194_714" x1="288.863" y1="279.163" x2="490.642" y2="162.665" gradientUnits="userSpaceOnUse">
<stop stop-color="#0009FF"/>
<stop offset="1" stop-color="#1DFF92" stop-opacity="0.949"/>
</linearGradient>
<clipPath id="clip0_194_714">
<rect width="442.581" height="245" rx="31.6129" fill="white"/>
</clipPath>
</defs>
</svg>
