<svg width="78" height="78" viewBox="0 0 78 78" fill="none" xmlns="http://www.w3.org/2000/svg">
<circle cx="39" cy="39" r="39" fill="#2848EE"/>
<path d="M38.9963 23C39.6906 23 40.2646 23.5157 40.3555 24.1851L40.3681 24.3712L40.3703 37.6292H53.6336C54.3911 37.6292 55.0051 38.2432 55.0051 39.0006C55.0051 39.695 54.4891 40.2688 53.8198 40.3597L53.6336 40.3721H40.3703L40.374 53.6282C40.3741 54.3856 39.7603 55 39.0028 55C38.3085 55 37.7345 54.4843 37.6436 53.8149L37.631 53.6287L37.6273 40.3721H24.3715C23.614 40.3721 23 39.7581 23 39.0006C23 38.3063 23.516 37.7325 24.1854 37.6416L24.3715 37.6292H37.6273L37.6251 24.3718C37.625 23.6143 38.2388 23 38.9963 23Z" fill="white"/>
</svg>
