<svg width="78" height="78" viewBox="0 0 78 78" fill="none" xmlns="http://www.w3.org/2000/svg">
<circle cx="39" cy="39" r="39" fill="#2848EE"/>
<path d="M41.1478 26.4395C41.1478 27.6627 40.1562 28.6543 38.933 28.6543C37.7098 28.6543 36.7182 27.6627 36.7182 26.4395C36.7182 25.2163 37.7098 24.2247 38.933 24.2247C40.1562 24.2247 41.1478 25.2163 41.1478 26.4395ZM41.2178 17.745C39.8566 16.7517 38.0094 16.7517 36.6482 17.745L20.2105 29.7401C18.0465 31.3192 19.1635 34.7448 21.8424 34.7448H22.3222V47.5903C20.3501 48.5985 19 50.65 19 53.0168V56.3389C19 57.2563 19.7437 58 20.6611 58H57.2049C58.1223 58 58.866 57.2563 58.866 56.3389V53.0168C58.866 50.65 57.5159 48.5985 55.5438 47.5903V34.7448H56.0236C58.7025 34.7448 59.8195 31.3193 57.6554 29.7401L41.2178 17.745ZM38.6065 20.4286C38.801 20.2867 39.065 20.2867 39.2595 20.4286L54.3255 31.4228H23.5405L38.6065 20.4286ZM52.2217 34.7448V46.9261H47.7921V34.7448H52.2217ZM44.4699 34.7448V46.9261H40.5941V34.7448H44.4699ZM37.2719 34.7448V46.9261H33.3961V34.7448H37.2719ZM25.0906 50.2483H52.7754C54.3044 50.2483 55.5438 51.4879 55.5438 53.0168V54.6778H22.3222V53.0168C22.3222 51.4879 23.5616 50.2483 25.0906 50.2483ZM25.6443 46.9261V34.7448H30.0739V46.9261H25.6443Z" fill="white"/>
</svg>
