<svg width="771" height="974" viewBox="0 0 771 974" fill="none" xmlns="http://www.w3.org/2000/svg">
<rect x="-4" y="-4" width="780" height="982" fill="#637BF5"/>
<g clip-path="url(#clip0_120_288)">
<path d="M647.304 765.168C649.37 765.297 650.512 762.73 648.949 761.234L648.794 760.616C648.814 760.567 648.835 760.517 648.855 760.468C650.945 755.486 658.025 755.52 660.097 760.509C661.935 764.938 664.276 769.373 664.852 774.055C665.111 776.122 664.995 778.228 664.536 780.256C668.844 770.845 671.111 760.569 671.111 750.235C671.111 747.639 670.969 745.042 670.678 742.452C670.439 740.334 670.11 738.228 669.684 736.142C667.378 724.865 662.385 714.124 655.184 705.152C651.722 703.26 648.835 700.302 647.091 696.756C646.464 695.477 645.973 694.101 645.741 692.7C646.135 692.751 647.226 686.751 646.929 686.383C647.478 685.55 648.461 685.135 649.061 684.322C652.043 680.279 656.152 680.985 658.297 686.48C662.879 688.792 662.923 692.628 660.112 696.317C658.323 698.663 658.077 701.839 656.508 704.351C656.669 704.558 656.837 704.758 656.999 704.965C659.96 708.763 662.521 712.845 664.68 717.134C664.069 712.367 664.97 706.625 666.506 702.924C668.254 698.707 671.531 695.155 674.416 691.509C677.882 687.13 684.99 689.041 685.6 694.592C685.606 694.646 685.612 694.7 685.618 694.753C685.189 694.995 684.769 695.252 684.359 695.523C682.02 697.071 682.828 700.697 685.6 701.125L685.663 701.135C685.508 702.678 685.243 704.209 684.856 705.714C688.557 720.03 680.566 725.244 669.154 725.478C668.902 725.607 668.657 725.737 668.405 725.859C669.561 729.115 670.485 732.454 671.169 735.838C671.783 738.829 672.209 741.851 672.448 744.887C672.745 748.717 672.719 752.567 672.396 756.39L672.416 756.255C673.236 752.044 675.523 748.11 678.842 745.384C683.788 741.322 690.775 739.826 696.111 736.56C698.679 734.988 701.97 737.02 701.522 739.997L701.5 740.14C700.706 740.463 699.931 740.837 699.181 741.257C698.753 741.499 698.333 741.756 697.923 742.027C695.583 743.574 696.392 747.201 699.164 747.629L699.227 747.639C699.272 747.645 699.311 747.652 699.356 747.658C697.993 750.894 696.094 753.897 693.717 756.487C691.403 768.984 681.461 770.17 670.827 766.531H670.82C669.658 771.595 667.959 776.542 665.776 781.257H647.756C647.691 781.057 647.633 780.85 647.575 780.65C649.241 780.753 650.921 780.656 652.561 780.353C651.224 778.712 649.887 777.059 648.55 775.418C648.518 775.386 648.492 775.354 648.466 775.321C647.788 774.482 647.104 773.649 646.425 772.809L646.425 772.808C646.383 770.23 646.692 767.661 647.304 765.168L647.304 765.168V765.168Z" fill="#F2F2F2"/>
<path d="M315.753 780.311C315.753 780.971 316.283 781.501 316.943 781.501H700.233C700.893 781.501 701.423 780.971 701.423 780.311C701.423 779.651 700.893 779.121 700.233 779.121H316.943C316.283 779.121 315.753 779.651 315.753 780.311V780.311Z" fill="#CCCCCC"/>
<path d="M373.914 780.994H197.489C175.977 780.994 158.476 763.492 158.476 741.98V362.831C158.476 341.319 175.977 323.817 197.489 323.817H373.914C395.425 323.817 412.927 341.319 412.927 362.831V741.98C412.927 763.492 395.425 780.994 373.914 780.994V780.994Z" fill="#3F3D56"/>
<path d="M412.927 463.281C412.017 463.281 411.276 464.021 411.276 464.931V517.746C411.276 518.656 412.017 519.396 412.927 519.396C413.837 519.396 414.577 518.656 414.577 517.746V464.931C414.577 464.021 413.837 463.281 412.927 463.281Z" fill="#3F3D56"/>
<path d="M409.213 362.831V741.973C409.213 760.698 394.64 776.014 376.213 777.202H376.204C375.932 777.219 375.66 777.235 375.379 777.244C374.892 777.268 374.405 777.277 373.91 777.277C373.91 777.277 372.095 777.145 368.777 776.897C365.427 776.649 360.55 776.278 354.468 775.791C352.644 775.651 350.721 775.494 348.691 775.329C344.648 774.999 340.208 774.636 335.446 774.223C333.548 774.066 331.584 773.893 329.579 773.72C319.33 772.837 307.851 771.805 295.745 770.633C293.698 770.444 291.635 770.246 289.556 770.039C289.011 769.982 288.458 769.932 287.905 769.874C279.273 769.024 162.189 746.397 162.189 741.973V362.831C162.189 343.331 177.993 327.528 197.493 327.528H218.569C221.936 327.528 224.643 330.152 224.931 333.511C224.956 333.734 224.981 333.956 225.022 334.179C225.633 337.554 228.728 339.906 232.16 339.906H339.242C342.675 339.906 345.77 337.554 346.381 334.179C346.422 333.956 346.447 333.734 346.471 333.511C346.76 330.152 349.467 327.528 352.834 327.528H373.91C393.41 327.528 409.213 343.331 409.213 362.831V362.831Z" fill="#D6DBFF"/>
<path d="M157.65 423.67C156.74 423.67 156 424.41 156 425.32V438.524C156 439.434 156.74 440.174 157.65 440.174C158.561 440.174 159.301 439.434 159.301 438.524V425.32C159.301 424.41 158.561 423.67 157.65 423.67Z" fill="#3F3D56"/>
<path d="M157.65 463.281C156.74 463.281 156 464.021 156 464.931V490.513C156 491.424 156.74 492.164 157.65 492.164C158.561 492.164 159.301 491.423 159.301 490.513V464.931C159.301 464.021 158.561 463.281 157.65 463.281Z" fill="#3F3D56"/>
<path d="M157.65 499.591C156.74 499.591 156 500.331 156 501.241V526.823C156 527.734 156.74 528.474 157.65 528.474C158.561 528.474 159.301 527.734 159.301 526.823V501.241C159.301 500.331 158.561 499.591 157.65 499.591V499.591Z" fill="#3F3D56"/>
<path d="M217.994 333.308H186.431C186.259 333.308 186.121 333.446 186.121 333.618V337.124C186.121 337.295 186.259 337.434 186.431 337.434H217.994C218.166 337.434 218.304 337.295 218.304 337.124V333.618C218.304 333.446 218.166 333.308 217.994 333.308Z" fill="#262626"/>
<path d="M358.049 337.434C359.872 337.434 361.35 335.956 361.35 334.133C361.35 332.31 359.872 330.832 358.049 330.832C356.226 330.832 354.748 332.31 354.748 334.133C354.748 335.956 356.226 337.434 358.049 337.434Z" fill="#262626"/>
<path d="M367.127 337.434C368.95 337.434 370.428 335.956 370.428 334.133C370.428 332.31 368.95 330.832 367.127 330.832C365.304 330.832 363.826 332.31 363.826 334.133C363.826 335.956 365.304 337.434 367.127 337.434Z" fill="#262626"/>
<path d="M376.204 337.434C378.027 337.434 379.505 335.956 379.505 334.133C379.505 332.31 378.027 330.832 376.204 330.832C374.381 330.832 372.903 332.31 372.903 334.133C372.903 335.956 374.381 337.434 376.204 337.434Z" fill="#262626"/>
<path d="M355.289 556.516H215.289C213.083 556.516 211.289 554.721 211.289 552.516C211.289 550.31 213.083 548.516 215.289 548.516H355.289C357.494 548.516 359.289 550.31 359.289 552.516C359.289 554.721 357.494 556.516 355.289 556.516Z" fill="#262626"/>
<path d="M285.791 711.516C317.823 711.516 343.791 685.548 343.791 653.516C343.791 621.483 317.823 595.516 285.791 595.516C253.758 595.516 227.791 621.483 227.791 653.516C227.791 685.548 253.758 711.516 285.791 711.516Z" fill="#3858FB"/>
<path d="M295.009 634.578C290.114 634.779 284.58 635.115 280.962 638.871C277.819 642.134 277.13 646.976 280.318 650.46C283.513 653.953 288.482 654.426 292.166 657.15C296.492 660.35 295.858 666.68 291.672 669.712C286.736 673.288 280.363 671.621 275.85 668.219C274.694 667.347 273.572 669.299 274.715 670.161C278.758 673.209 284.033 674.906 289.032 673.448C293.544 672.131 297.041 668.453 297.397 663.668C297.566 661.384 296.917 659.067 295.497 657.264C293.998 655.36 291.839 654.189 289.656 653.236C285.899 651.596 279.43 649.473 280.522 644.132C281.846 637.659 289.726 637.045 295.009 636.828C296.452 636.769 296.459 634.519 295.009 634.578L295.009 634.578Z" fill="#D6DBFF"/>
<path d="M285.928 631.516L285.712 680.909C285.706 682.357 287.956 682.359 287.962 680.909L288.178 631.516C288.184 630.068 285.934 630.066 285.928 631.516Z" fill="#D6DBFF"/>
<path d="M593.085 258H307.125C296.635 258 288.105 266.53 288.105 277.02V472.98C288.105 483.47 296.635 492 307.125 492H593.085C603.575 492 612.105 483.47 612.105 472.98V277.02C612.105 266.53 603.575 258 593.085 258Z" fill="#D6DBFF"/>
<path d="M448.791 374.516C466.464 374.516 480.791 360.189 480.791 342.516C480.791 324.843 466.464 310.516 448.791 310.516C431.117 310.516 416.791 324.843 416.791 342.516C416.791 360.189 431.117 374.516 448.791 374.516Z" fill="#3858FB"/>
<path d="M454.861 328.236C450.9 328.399 446.441 328.65 443.444 331.598C440.962 334.04 440.094 337.841 442.375 340.716C444.777 343.743 448.77 344.317 451.905 346.252C453.853 347.454 455.144 349.275 455.186 351.616C455.225 353.808 454.214 355.855 452.523 357.228C448.375 360.598 442.718 359.203 438.794 356.256C438.022 355.676 437.273 356.978 438.037 357.551C441.287 359.992 445.472 361.41 449.516 360.36C453.238 359.393 456.237 356.464 456.64 352.551C457.065 348.427 454.357 345.619 450.846 344.008C447.636 342.535 442.007 340.966 442.538 336.391C443.212 330.575 450.333 329.922 454.861 329.736C455.823 329.696 455.828 328.196 454.861 328.236V328.236Z" fill="#D6DBFF"/>
<path d="M447.977 325.516L447.797 366.674C447.793 367.639 449.293 367.64 449.297 366.674L449.477 325.516C449.481 324.55 447.981 324.549 447.977 325.516Z" fill="#D6DBFF"/>
<path d="M593.085 258H307.125C296.635 258 288.105 266.53 288.105 277.02V472.98C288.105 483.47 296.635 492 307.125 492H593.085C603.575 492 612.105 483.47 612.105 472.98V277.02C612.105 266.53 603.575 258 593.085 258ZM610.105 472.98C610.105 482.37 602.475 490 593.085 490H307.125C297.735 490 290.105 482.37 290.105 472.98V277.02C290.105 267.63 297.735 260 307.125 260H593.085C602.475 260 610.105 267.63 610.105 277.02V472.98Z" fill="#3F3D56"/>
<path d="M417.136 277.35H389.076C387.666 277.35 386.516 278.5 386.516 279.91C386.516 281.33 387.666 282.48 389.076 282.48H417.136C418.546 282.48 419.696 281.33 419.696 279.91C419.696 278.5 418.546 277.35 417.136 277.35Z" fill="#262626"/>
<path d="M464.136 277.35H436.076C434.666 277.35 433.516 278.5 433.516 279.91C433.516 281.33 434.666 282.48 436.076 282.48H464.136C465.546 282.48 466.696 281.33 466.696 279.91C466.696 278.5 465.546 277.35 464.136 277.35Z" fill="#262626"/>
<path d="M511.136 277.35H483.076C481.666 277.35 480.516 278.5 480.516 279.91C480.516 281.33 481.666 282.48 483.076 282.48H511.136C512.546 282.48 513.696 281.33 513.696 279.91C513.696 278.5 512.546 277.35 511.136 277.35Z" fill="#262626"/>
<path d="M557.415 392.516H342.795C333.865 392.516 326.605 399.776 326.605 408.706V423.326C326.605 432.256 333.865 439.516 342.795 439.516H557.415C566.345 439.516 573.605 432.256 573.605 423.326V408.706C573.605 399.776 566.345 392.516 557.415 392.516Z" fill="#3858FB"/>
<path d="M229.179 469.492L220.949 465.593C224.325 470.304 227.233 477.661 228.791 483.516C231.427 478.062 235.677 471.39 239.884 467.404L231.186 469.641C236.546 443.373 256.705 424.516 279.791 424.516V422.516C255.677 422.516 234.652 442.163 229.179 469.492Z" fill="#3F3D56"/>
<path d="M267.059 509.516H215.059C212.853 509.516 211.059 507.721 211.059 505.516C211.059 503.31 212.853 501.516 215.059 501.516H267.059C269.264 501.516 271.059 503.31 271.059 505.516C271.059 507.721 269.264 509.516 267.059 509.516Z" fill="#262626"/>
<path d="M612.979 496.488L612.454 537.327L602.293 573.732L594.17 570.702L597.777 537.333L597.302 492.176L612.979 496.488Z" fill="#FFB6B6"/>
<path d="M602.258 579.603C603.211 574.368 601.464 569.665 598.356 569.099C595.248 568.533 591.956 572.318 591.003 577.553C590.05 582.788 591.797 587.491 594.905 588.056C598.013 588.622 601.305 584.837 602.258 579.603Z" fill="#FFB6B6"/>
<path d="M600.648 447.861C600.648 447.861 618.056 448.101 618.041 457.348C618.033 462.569 616.911 509.971 613.791 538.768C611.385 560.974 606.791 566.768 606.791 566.768L595.791 541.768L600.648 447.861V447.861Z" fill="#262626"/>
<path d="M600.201 531.298H541.413C546.341 520.303 549.37 509.831 544.634 501.502L600.201 498.281C597.424 509.525 597.084 520.56 600.201 531.298Z" fill="#FFB6B6"/>
<path d="M592.953 433.856L569.599 432.245L559.935 444.325L555.036 445.216C547.692 446.551 542.463 453.105 542.791 460.562L544.697 503.874L600.517 507.945L613.891 451.542L597.785 445.13L592.953 433.856V433.856Z" fill="#262626"/>
<path d="M450.531 446.922C452.188 448.412 453.371 450.154 453.995 451.842L470.677 465.045L464.162 472.799L447.942 458.571C446.197 458.128 444.341 457.135 442.684 455.645C438.898 452.239 437.587 447.526 439.753 445.118C441.92 442.709 446.746 443.517 450.531 446.922L450.531 446.922Z" fill="#FFB6B6"/>
<path d="M568.468 458.037V458.037L504.551 501.196L458.735 469.312L465.613 456.852L501.673 477.809L534.928 452.274C546.77 441.151 561.612 443.307 568.468 458.037H568.468Z" fill="#262626"/>
<path d="M579.891 428.628C589.46 428.628 597.217 420.871 597.217 411.302C597.217 401.733 589.46 393.976 579.891 393.976C570.322 393.976 562.565 401.733 562.565 411.302C562.565 420.871 570.322 428.628 579.891 428.628Z" fill="#FFB6B6"/>
<path d="M603.441 407.046V410.406L583.901 404.906L569.251 407.976C569.081 405.746 568.421 403.556 567.321 401.616C568.086 404.727 568.172 407.134 567.361 408.376L565.391 408.786C565.071 407.916 564.451 407.156 563.641 406.696C563.561 406.646 563.461 406.606 563.371 406.636C563.231 406.686 563.221 406.866 563.221 407.006C563.241 407.746 563.261 408.486 563.291 409.226L557.631 410.406V407.046C552.201 394.828 566.513 384.255 580.541 384.146C586.871 384.096 592.591 386.706 596.741 390.846C600.881 394.996 603.441 400.716 603.441 407.046V407.046Z" fill="#2F2E41"/>
<path d="M614.433 446.444L612.958 446.322C613.063 445.839 613.168 445.363 613.264 444.88C614.082 440.831 612.282 435.676 612.149 431.785C611.455 435.896 612.643 440.953 611.414 444.856C611.277 445.29 605.937 448.088 605.791 448.516C599.882 446.355 593.728 439.45 586.759 443.483C582.638 445.868 577.936 444.822 573.257 443.73C572.098 443.46 571.937 437.74 570.791 437.516C568.738 437.113 565.723 442.313 563.791 442.516L571.791 411.516C571.791 394.652 570.229 376.958 591.591 382.921C596.964 384.421 602.281 385.597 606.247 390.031C610.212 394.472 613.035 400.677 614.036 407.744C614.639 412.007 618.403 426.483 614.433 446.444V446.444Z" fill="#2F2E41"/>
<path d="M600.639 758.18L591.102 758.405L585.786 715.561L599.86 715.228L600.639 758.18Z" fill="#FFB7B7"/>
<path d="M567.92 778.076C567.92 779.687 569.063 780.993 570.474 780.993H589.403C589.403 780.993 591.266 773.506 598.861 770.283L599.385 780.993H609.15L607.967 763.772C607.967 763.772 610.579 754.558 605.154 749.848C599.729 745.138 604.123 745.794 604.123 745.794L601.989 735.135L587.233 736.87L587.124 753.602L579.963 770.21L569.46 775.399C568.525 775.861 567.92 776.913 567.92 778.076H567.92H567.92Z" fill="#2F2E41"/>
<path d="M571.625 751.198L562.457 753.836L546.443 713.743L559.972 709.85L571.625 751.198Z" fill="#FFB7B7"/>
<path d="M545.026 778.746C545.434 780.304 546.872 781.277 548.236 780.919L566.545 776.116C566.545 776.116 566.447 768.4 572.976 763.356L576.201 773.583L585.646 771.105L580.131 754.747C580.131 754.747 580.32 745.172 573.877 741.993C567.435 738.814 571.851 738.333 571.851 738.333L567.082 728.565L553.25 733.987L557.391 750.199L554.679 768.081L545.836 775.765C545.049 776.449 544.73 777.62 545.026 778.746L545.026 778.746L545.026 778.746Z" fill="#2F2E41"/>
<path d="M594.791 528.768L600.791 530.768C610.172 548.093 614.149 571.101 613.622 598.846L602.964 723.457H585.528L572.767 584.635L550.267 636.74L566.73 723.457L550.267 725.136L517.11 634.964L540.202 530.162L594.791 528.768V528.768Z" fill="#2F2E41"/>
</g>
<defs>
<clipPath id="clip0_120_288">
<rect width="545.563" height="523.501" fill="white" transform="translate(156 258)"/>
</clipPath>
</defs>
</svg>
