<svg width="170" height="77" viewBox="0 0 170 77" fill="none" xmlns="http://www.w3.org/2000/svg">
<path d="M12.3438 56H19.1875V30.875H12.3438V56ZM15.7656 28.1094C17.8281 28.1094 19.4219 26.5391 19.4219 24.5703C19.4219 22.5781 17.8281 21.0312 15.7656 21.0312C13.7031 21.0312 12.1094 22.5781 12.1094 24.5703C12.1094 26.5391 13.7031 28.1094 15.7656 28.1094ZM27.9859 25.0859V30.875H24.4469V36.0312H27.9859V49.2266C27.9859 54.125 30.2828 56.0938 36.1891 56.0938C37.5719 56.0938 38.7437 55.9766 39.4469 55.8125V50.7734C39.025 50.8438 38.3922 50.8906 37.7828 50.8906C35.7672 50.8906 34.8297 49.9766 34.8297 48.0547V36.0312H39.4703V30.875H34.8297V25.0859H27.9859ZM60.55 56.3984C66.8781 56.3984 70.7453 51.5234 70.7453 43.4375C70.7453 35.3281 66.8547 30.4766 60.5266 30.4766C56.9406 30.4766 54.1516 32.2578 52.7687 35.2344H52.6281V22.1797H45.7844V56H52.5344V51.6875H52.675C54.0578 54.6172 56.8703 56.3984 60.55 56.3984ZM58.1828 35.9609C61.5812 35.9609 63.7375 38.8672 63.7375 43.4375C63.7375 48.0312 61.6047 50.8906 58.1828 50.8906C54.8547 50.8906 52.6047 47.9844 52.6047 43.4375C52.6047 38.9375 54.8781 35.9609 58.1828 35.9609ZM86.4109 51.4531C84.0906 51.4531 82.5437 50.2812 82.5437 48.4062C82.5437 46.625 83.9969 45.4766 86.5516 45.2891L91.8484 44.9609V46.7891C91.8484 49.5078 89.3875 51.4531 86.4109 51.4531ZM84.1609 56.3984C87.3016 56.3984 90.4187 54.8281 91.825 52.1562H91.9656V56H98.575V38.7266C98.575 33.6641 94.3797 30.3359 87.9344 30.3359C81.2781 30.3359 77.1297 33.6875 76.8719 38.5625H83.1297C83.4578 36.7109 85.075 35.4453 87.6297 35.4453C90.2078 35.4453 91.8484 36.8047 91.8484 39.1484V40.8125L85.5203 41.1875C79.2625 41.5625 75.7469 44.2109 75.7469 48.7812C75.7469 53.3047 79.3797 56.3984 84.1609 56.3984ZM105.405 56H112.248V41.5859C112.248 38.3281 114.194 36.0781 117.264 36.0781C120.334 36.0781 121.881 37.9531 121.881 41.2344V56H128.725V39.8047C128.725 33.9219 125.584 30.4062 120.006 30.4062C116.139 30.4062 113.491 32.2344 112.155 35.3516H112.014V30.875H105.405V56ZM142.562 40.9531H142.469V22.1797H135.625V56H142.469V47.7031L144.25 45.7812L151.445 56H159.32L149.266 41.6562L158.852 30.875H151.094L142.562 40.9531Z" fill="#3858FB"/>
</svg>
